<svg xmlns="http://www.w3.org/2000/svg" width="32" height="32" viewBox="0 0 32 32">
    <g fill="none" fill-rule="evenodd">
        <g>
            <g>
                <path d="M0 0H32V32H0z" transform="translate(-346 -770) translate(346 770)"/>
                <path fill="#BF4A8E" d="M21.088 8.357l.006.006 6.204 6.23c.776.778.776 2.036 0 2.815l-6.204 6.23c-.785.787-2.06.79-2.847.005l-.005-.006c-.79-.791-.79-2.072 0-2.864l2.794-2.806H5.967C4.881 17.967 4 17.087 4 16c0-1.087.88-1.967 1.967-1.967l15.069-.001-2.794-2.806c-.789-.791-.79-2.072 0-2.863.784-.788 2.059-.79 2.846-.006z" transform="translate(-346 -770) translate(346 770) rotate(-180 16 16)"/>
            </g>
        </g>
    </g>
</svg>
